HIERARCHY
ROOT Root
{
  OFFSET 0.0 0.0 0.0
  CHANNELS 6 Xposition Yposition Zposition Zrotation Yrotation Xrotation
  JOINT Hips
  {
    OFFSET 0.0 100.0 0.0
    CHANNELS 6 Xposition Yposition Zposition Zrotation Yrotation Xrotation
    JOINT Spine1
    {
      OFFSET 5.003913 -0.037094 -0.013727
      CHANNELS 3 Zrotation Yrotation Xrotation
      JOINT Spine2
      {
        OFFSET 7.125363 -1e-06 0.0
        CHANNELS 3 Zrotation Yrotation Xrotation
        JOINT Chest
        {
          OFFSET 7.594027 1e-06 0.0
          CHANNELS 3 Zrotation Yrotation Xrotation
          JOINT Neck1
          {
            OFFSET 26.313086 -0.460272 -0.181672
            CHANNELS 3 Zrotation Yrotation Xrotation
            JOINT Neck2
            {
              OFFSET 8.045911 0.0 0.0
              CHANNELS 3 Zrotation Yrotation Xrotation
              JOINT Head
              {
                OFFSET 6.432774 0.0 0.0
                CHANNELS 3 Zrotation Yrotation Xrotation
                JOINT HeadEnd
                {
                  OFFSET 16.169773 0.06451 0.00362
                  CHANNELS 3 Zrotation Yrotation Xrotation
                }
                JOINT Jaw
                {
                  OFFSET 0.108741 3.12938 0.002639
                  CHANNELS 3 Zrotation Yrotation Xrotation
                }
                JOINT LeftEye
                {
                  OFFSET 4.45173 8.166359 3.206392
                  CHANNELS 3 Zrotation Yrotation Xrotation
                }
                JOINT RightEye
                {
                  OFFSET 4.436895 8.135758 -3.222429
                  CHANNELS 3 Zrotation Yrotation Xrotation
                }
              }
            }
          }
          JOINT LeftShoulder
          {
            OFFSET 23.218927 5.195579 1.621656
            CHANNELS 3 Zrotation Yrotation Xrotation
            JOINT LeftArm
            {
              OFFSET 15.902118 2e-06 -2e-06
              CHANNELS 3 Zrotation Yrotation Xrotation
              JOINT LeftForeArm
              {
                OFFSET 28.739307 0.0 -1e-06
                CHANNELS 3 Zrotation Yrotation Xrotation
                JOINT LeftHand
                {
                  OFFSET 27.093981 -4e-06 0.0
                  CHANNELS 3 Zrotation Yrotation Xrotation
                  JOINT LeftHandThumb1
                  {
                    OFFSET 2.276781 3.380274 0.83384
                    CHANNELS 3 Zrotation Yrotation Xrotation
                    JOINT LeftHandThumb2
                    {
                      OFFSET 4.705309 -1e-06 -1e-06
                      CHANNELS 3 Zrotation Yrotation Xrotation
                      JOINT LeftHandThumb3
                      {
                        OFFSET 2.798515 0.0 3e-06
                        CHANNELS 3 Zrotation Yrotation Xrotation
                        JOINT LeftHandThumbEnd
                        {
                          OFFSET 3.180793 4e-06 -4e-06
                          CHANNELS 3 Zrotation Yrotation Xrotation
                        }
                      }
                    }
                  }
                  JOINT LeftHandIndex1
                  {
                    OFFSET 3.247786 2.352677 0.137192
                    CHANNELS 3 Zrotation Yrotation Xrotation
                    JOINT LeftHandIndex2
                    {
                      OFFSET 6.367095 1e-06 0.0
                      CHANNELS 3 Zrotation Yrotation Xrotation
                      JOINT LeftHandIndex3
                      {
                        OFFSET 3.662364 0.0 0.0
                        CHANNELS 3 Zrotation Yrotation Xrotation
                        JOINT LeftHandIndex4
                        {
                          OFFSET 2.329242 4e-06 -4e-06
                          CHANNELS 3 Zrotation Yrotation Xrotation
                          JOINT LeftHandIndexEnd
                          {
                            OFFSET 2.767823 1e-06 0.0
                            CHANNELS 3 Zrotation Yrotation Xrotation
                          }
                        }
                      }
                    }
                  }
                  JOINT LeftHandMiddle1
                  {
                    OFFSET 3.163612 0.945023 -0.406112
                    CHANNELS 3 Zrotation Yrotation Xrotation
                    JOINT LeftHandMiddle2
                    {
                      OFFSET 6.276789 3e-06 0.0
                      CHANNELS 3 Zrotation Yrotation Xrotation
                      JOINT LeftHandMiddle3
                      {
                        OFFSET 4.35652 -1e-06 4e-06
                        CHANNELS 3 Zrotation Yrotation Xrotation
                        JOINT LeftHandMiddle4
                        {
                          OFFSET 2.996877 0.0 8e-06
                          CHANNELS 3 Zrotation Yrotation Xrotation
                          JOINT LeftHandMiddleEnd
                          {
                            OFFSET 2.323256 3e-06 -4e-06
                            CHANNELS 3 Zrotation Yrotation Xrotation
                          }
                        }
                      }
                    }
                  }
                  JOINT LeftHandRing1
                  {
                    OFFSET 2.882606 -0.309162 0.107445
                    CHANNELS 3 Zrotation Yrotation Xrotation
                    JOINT LeftHandRing2
                    {
                      OFFSET 6.033198 0.0 4e-06
                      CHANNELS 3 Zrotation Yrotation Xrotation
                      JOINT LeftHandRing3
                      {
                        OFFSET 4.350578 3e-06 0.0
                        CHANNELS 3 Zrotation Yrotation Xrotation
                        JOINT LeftHandRing4
                        {
                          OFFSET 2.651321 2e-06 -7e-06
                          CHANNELS 3 Zrotation Yrotation Xrotation
                          JOINT LeftHandRingEnd
                          {
                            OFFSET 1.937663 1e-06 -4e-06
                            CHANNELS 3 Zrotation Yrotation Xrotation
                          }
                        }
                      }
                    }
                  }
                  JOINT LeftHandPinky1
                  {
                    OFFSET 2.865315 -1.525436 0.575687
                    CHANNELS 3 Zrotation Yrotation Xrotation
                    JOINT LeftHandPinky2
                    {
                      OFFSET 5.54936 1e-06 -8e-06
                      CHANNELS 3 Zrotation Yrotation Xrotation
                      JOINT LeftHandPinky3
                      {
                        OFFSET 3.070974 0.0 -4e-06
                        CHANNELS 3 Zrotation Yrotation Xrotation
                        JOINT LeftHandPinky4
                        {
                          OFFSET 1.549672 1e-06 0.0
                          CHANNELS 3 Zrotation Yrotation Xrotation
                          JOINT LeftHandPinkyEnd
                          {
                            OFFSET 1.952123 0.0 0.0
                            CHANNELS 3 Zrotation Yrotation Xrotation
                          }
                        }
                      }
                    }
                  }
                }
              }
            }
          }
          JOINT RightShoulder
          {
            OFFSET 23.161716 5.296122 -1.380114
            CHANNELS 3 Zrotation Yrotation Xrotation
            JOINT RightArm
            {
              OFFSET -16.027195 -2e-06 1.1e-05
              CHANNELS 3 Zrotation Yrotation Xrotation
              JOINT RightForeArm
              {
                OFFSET -28.736639 4e-06 2e-06
                CHANNELS 3 Zrotation Yrotation Xrotation
                JOINT RightHand
                {
                  OFFSET -27.133619 6e-06 0.0
                  CHANNELS 3 Zrotation Yrotation Xrotation
                  JOINT RightHandThumb1
                  {
                    OFFSET -2.274328 -3.351035 -0.83067
                    CHANNELS 3 Zrotation Yrotation Xrotation
                    JOINT RightHandThumb2
                    {
                      OFFSET -4.703594 -3e-06 2e-06
                      CHANNELS 3 Zrotation Yrotation Xrotation
                      JOINT RightHandThumb3
                      {
                        OFFSET -2.794935 -4e-06 -3e-06
                        CHANNELS 3 Zrotation Yrotation Xrotation
                        JOINT RightHandThumbEnd
                        {
                          OFFSET -3.183852 4e-06 1e-06
                          CHANNELS 3 Zrotation Yrotation Xrotation
                        }
                      }
                    }
                  }
                  JOINT RightHandIndex1
                  {
                    OFFSET -3.253496 -2.33755 -0.127667
                    CHANNELS 3 Zrotation Yrotation Xrotation
                    JOINT RightHandIndex2
                    {
                      OFFSET -6.344434 0.0 0.0
                      CHANNELS 3 Zrotation Yrotation Xrotation
                      JOINT RightHandIndex3
                      {
                        OFFSET -3.654871 0.0 -8e-06
                        CHANNELS 3 Zrotation Yrotation Xrotation
                        JOINT RightHandIndex4
                        {
                          OFFSET -2.327586 -1e-06 0.0
                          CHANNELS 3 Zrotation Yrotation Xrotation
                          JOINT RightHandIndexEnd
                          {
                            OFFSET -2.770001 3e-06 8e-06
                            CHANNELS 3 Zrotation Yrotation Xrotation
                          }
                        }
                      }
                    }
                  }
                  JOINT RightHandMiddle1
                  {
                    OFFSET -3.168223 -0.944764 0.411762
                    CHANNELS 3 Zrotation Yrotation Xrotation
                    JOINT RightHandMiddle2
                    {
                      OFFSET -6.266691 -1e-06 -4e-06
                      CHANNELS 3 Zrotation Yrotation Xrotation
                      JOINT RightHandMiddle3
                      {
                        OFFSET -4.348901 0.0 0.0
                        CHANNELS 3 Zrotation Yrotation Xrotation
                        JOINT RightHandMiddle4
                        {
                          OFFSET -3.00024 2e-06 -4e-06
                          CHANNELS 3 Zrotation Yrotation Xrotation
                          JOINT RightHandMiddleEnd
                          {
                            OFFSET -2.321477 -4e-06 -4e-06
                            CHANNELS 3 Zrotation Yrotation Xrotation
                          }
                        }
                      }
                    }
                  }
                  JOINT RightHandRing1
                  {
                    OFFSET -2.885654 0.293261 -0.119232
                    CHANNELS 3 Zrotation Yrotation Xrotation
                    JOINT RightHandRing2
                    {
                      OFFSET -6.032835 -1e-06 -4e-06
                      CHANNELS 3 Zrotation Yrotation Xrotation
                      JOINT RightHandRing3
                      {
                        OFFSET -4.33881 0.0 -4e-06
                        CHANNELS 3 Zrotation Yrotation Xrotation
                        JOINT RightHandRing4
                        {
                          OFFSET -2.654903 -4e-06 -4e-06
                          CHANNELS 3 Zrotation Yrotation Xrotation
                          JOINT RightHandRingEnd
                          {
                            OFFSET -1.935122 0.0 4e-06
                            CHANNELS 3 Zrotation Yrotation Xrotation
                          }
                        }
                      }
                    }
                  }
                  JOINT RightHandPinky1
                  {
                    OFFSET -2.866241 1.503904 -0.60527
                    CHANNELS 3 Zrotation Yrotation Xrotation
                    JOINT RightHandPinky2
                    {
                      OFFSET -5.553177 -2e-06 0.0
                      CHANNELS 3 Zrotation Yrotation Xrotation
                      JOINT RightHandPinky3
                      {
                        OFFSET -3.062664 -1e-06 -4e-06
                        CHANNELS 3 Zrotation Yrotation Xrotation
                        JOINT RightHandPinky4
                        {
                          OFFSET -1.546529 2e-06 4e-06
                          CHANNELS 3 Zrotation Yrotation Xrotation
                          JOINT RightHandPinkyEnd
                          {
                            OFFSET -1.952341 0.0 -4e-06
                            CHANNELS 3 Zrotation Yrotation Xrotation
                          }
                        }
                      }
                    }
                  }
                }
              }
            }
          }
        }
      }
    }
    JOINT LeftLeg
    {
      OFFSET -8.443107 2.567604 10.043214
      CHANNELS 3 Zrotation Yrotation Xrotation
      JOINT LeftShin
      {
        OFFSET 43.229198 1e-06 -1e-06
        CHANNELS 3 Zrotation Yrotation Xrotation
        JOINT LeftFoot
        {
          OFFSET 42.298611 1e-06 1e-06
          CHANNELS 3 Zrotation Yrotation Xrotation
          JOINT LeftToeBase
          {
            OFFSET 14.165858 1e-06 0.0
            CHANNELS 3 Zrotation Yrotation Xrotation
            JOINT LeftToeEnd
            {
              OFFSET 6.7141 -0.234461 0.0
              CHANNELS 3 Zrotation Yrotation Xrotation
            }
          }
        }
      }
    }
    JOINT RightLeg
    {
      OFFSET -8.303923 2.592729 -10.047278
      CHANNELS 3 Zrotation Yrotation Xrotation
      JOINT RightShin
      {
        OFFSET -43.369682 0.0 1e-06
        CHANNELS 3 Zrotation Yrotation Xrotation
        JOINT RightFoot
        {
          OFFSET -42.260784 4e-06 2e-06
          CHANNELS 3 Zrotation Yrotation Xrotation
          JOINT RightToeBase
          {
            OFFSET -14.222245 -2e-06 -1e-06
            CHANNELS 3 Zrotation Yrotation Xrotation
            JOINT RightToeEnd
            {
              OFFSET -6.660062 0.232574 -2e-06
              CHANNELS 3 Zrotation Yrotation Xrotation
            }
          }
        }
      }
    }
  }
}
MOTION
Frames: 4
Frame Time: 0.03333333333333333
0.0 0.0 0.0 0.0 -0.0 0.0 -22.863892 46.528873 160.071564 83.61042 -53.234291 87.461998 11.528632 3.849666 0.934096 -4.381084 1.232253 -0.348703 25.385973 4.944005 0.094005 12.301091 -5.926064 3.123489 -2.787976 -0.531739 3.798451 -42.724316 5.602099 2.120773 6e-06 -0.0 -0.0 -0.157942 -0.068623 0.166382 -0.082032 -0.148737 0.247484 0.022271 -0.000768 0.09372 -33.274727 -63.542629 37.583332 90.626511 3.932581 -32.820038 6.924187 0.125164 0.112805 -5.723225 69.472618 -4.320951 17.636625 -26.322725 52.411182 -19.46666 -14.395594 29.410385 -0.0 -8.774819 -2e-06 15.835027 -18.422993 6.506784 -0.609777 -1.795654 -3.889327 -4.807087 -11.046811 -2.93785 4e-06 -20.976015 -1e-06 -5.01997 -25.033556 -4.031879 6e-06 1e-06 0.0 -10.634533 -5.686969 -3.565586 10.573272 -17.922951 -3.1139 3e-06 -13.821208 1e-06 -0.501777 -31.181505 -4.027014 -11.199647 -59.54615 6.352025 -13.982711 -7.150198 -2.875042 13.772727 -8.40149 -3.21824 0.347733 -34.211544 0.771654 -0.963028 -17.733366 2.62102 -0.0 -0.0 -0.0 -17.346413 -20.095213 -4.201781 21.757555 -1.638375 3.866427 1e-06 -6.338822 1e-06 -1.697589 -22.591742 -6.194005 -0.0 -7e-06 -2e-06 172.97522 -77.200417 16.279314 92.589401 -24.861019 -49.249596 24.301224 -1.86991 0.351869 76.074715 50.72456 85.45005 22.182123 -20.375898 49.933342 -16.701817 -16.74353 28.47654 -2e-06 -12.690602 0.0 16.390387 -18.604101 2.73918 -0.105921 -1.513858 -4.275884 -5.039043 -5.612874 -2.953557 4e-06 -11.020527 -2e-06 -6.111301 -15.895341 -3.840473 1e-06 1e-06 1e-06 -10.283373 -5.680292 -4.341841 11.028297 -11.302406 -2.372634 -1.38427 -14.238588 -6.320126 -0.625437 -26.924198 -3.827605 -4.236047 -50.0937 -4.429508 -13.708527 -7.363479 -3.720942 18.141151 -14.05274 -3.242675 4e-06 -18.787275 -2e-06 -0.429711 -8.456046 2.555504 0.0 0.0 -0.0 -15.923539 -20.094494 -5.473588 30.419218 -7.190825 1.735927 1e-06 -8.162929 0.0 -1.861902 -22.861479 -6.167946 -0.0 -3e-06 -2e-06 164.102905 -12.022512 3.871057 58.388077 -1.72618 0.245082 -29.42617 26.963587 12.304386 -8.649336 1.057141 1.282988 -0.999998 0.0 1e-06 -70.599106 4.302676 -7.916579 123.976517 0.683032 0.098861 -56.507538 4.603696 -12.618275 -11.088542 0.626321 1.944291 -1.000001 -1e-06 -0.0 
0.0 0.0 0.0 0.0 -0.0 0.0 -23.124355 46.226944 162.161163 82.507141 -54.802612 87.659592 11.097015 3.965582 1.216624 -4.621032 1.289731 0.23264 24.561888 5.178732 1.127209 11.075738 -6.91137 3.202505 -2.827631 -0.218841 3.60355 -42.878361 5.312713 1.768533 5e-06 0.0 0.0 -0.1769 -0.035308 0.153712 -0.095691 -0.084905 0.253737 0.024848 -0.000586 0.069317 -36.232975 -62.186802 39.86805 94.144157 2.104472 -32.320862 6.911324 0.216222 0.130717 -6.022068 72.583206 -4.493128 17.636623 -26.322737 52.411201 -19.466663 -14.395598 29.410395 -1e-06 -8.774822 -2e-06 15.595091 -18.223923 6.640691 -0.609776 -1.795654 -3.889328 -4.807089 -11.046813 -2.93785 5e-06 -20.976015 -0.0 -5.019968 -25.033552 -4.031882 6e-06 -0.0 1e-06 -10.634533 -5.68697 -3.565588 10.573274 -17.922951 -3.113902 3e-06 -13.821209 1e-06 -0.501776 -31.181505 -4.027016 -10.92891 -59.236694 6.228946 -13.982712 -7.150198 -2.875042 13.77273 -8.401495 -3.218243 0.347734 -34.211555 0.771654 -0.963028 -17.73337 2.62102 0.0 0.0 0.0 -17.346418 -20.095219 -4.201782 21.757557 -1.638375 3.866426 1e-06 -6.338822 1e-06 -1.697588 -22.591743 -6.194007 0.0 -6e-06 -2e-06 179.981415 -78.015602 9.475386 89.982903 -28.422291 -50.447014 26.856979 -2.577948 0.14445 76.73745 48.278725 87.433777 22.182117 -20.375898 49.933334 -16.701817 -16.743528 28.476536 -2e-06 -12.690601 -0.0 16.272467 -18.634829 2.646845 -0.105919 -1.513854 -4.275882 -5.039042 -5.612875 -2.953557 5e-06 -11.020525 -3e-06 -6.111298 -15.895334 -3.84047 1e-06 2e-06 -1e-06 -10.283373 -5.680289 -4.341839 11.028297 -11.302406 -2.372633 -1.384269 -14.238585 -6.320124 -0.625438 -26.924194 -3.827602 -4.300638 -50.064503 -4.384735 -13.708526 -7.363474 -3.72094 18.141151 -14.05274 -3.242675 5e-06 -18.787273 -1e-06 -0.429711 -8.456043 2.555505 0.0 -1e-06 1e-06 -15.923538 -20.094486 -5.473586 30.419218 -7.190825 1.735928 1e-06 -8.162927 1e-06 -1.861901 -22.861469 -6.167943 -0.0 -3e-06 -1e-06 164.995605 -13.137383 2.188931 55.281212 -1.868134 0.412798 -29.259954 26.244328 11.750429 -8.208514 1.070008 1.297376 -1.0 -0.0 1e-06 -69.457832 5.589221 -8.649795 121.799599 0.316149 -0.017768 -56.601418 5.148964 -13.06678 -11.44735 0.607618 1.971096 -1.000002 -0.0 -1e-06 
0.0 0.0 0.0 0.0 -0.0 0.0 -23.318094 45.940582 163.9646 81.773544 -56.358856 87.768158 10.685766 3.922525 1.467916 -4.753886 1.318484 0.81365 23.879822 5.322758 1.929579 9.754533 -7.570251 3.289443 -2.855646 -0.282176 3.518874 -42.575352 5.135484 1.556653 7e-06 0.0 0.0 -0.195139 -0.070145 0.180828 -0.113635 -0.110104 0.290297 0.015332 -0.04456 0.086287 -38.76453 -60.881676 41.840191 97.391853 0.913035 -31.681484 6.896783 0.378964 0.152075 -6.683227 75.162186 -5.220738 17.636627 -26.322735 52.411213 -19.466665 -14.395598 29.410395 -1e-06 -8.774822 -2e-06 15.213606 -18.184103 6.785563 -0.609776 -1.795655 -3.889328 -4.807089 -11.046811 -2.937852 5e-06 -20.976019 -0.0 -5.019969 -25.03356 -4.031882 6e-06 2e-06 1e-06 -10.634535 -5.686972 -3.565588 10.573275 -17.922955 -3.113902 3e-06 -13.821208 0.0 -0.501775 -31.181505 -4.027017 -10.745747 -58.874256 6.03165 -13.982716 -7.1502 -2.875042 13.772731 -8.401495 -3.218243 0.347734 -34.211555 0.771654 -0.963029 -17.733376 2.62102 0.0 1e-06 0.0 -17.346418 -20.095222 -4.201784 21.757561 -1.638375 3.866427 1e-06 -6.338824 1e-06 -1.697589 -22.591753 -6.194008 0.0 -5e-06 -2e-06 -172.243332 -78.775398 1.699979 87.558769 -31.856108 -51.0177 29.608307 -2.51093 -0.053941 76.847519 46.526463 88.587662 22.182116 -20.375895 49.933304 -16.701811 -16.743528 28.476522 -1e-06 -12.6906 2e-06 16.204849 -18.781733 2.615018 -0.105919 -1.513856 -4.275881 -5.039041 -5.612873 -2.953554 4e-06 -11.020523 -2e-06 -6.111297 -15.89533 -3.840469 -0.0 1e-06 -2e-06 -10.283371 -5.680287 -4.341838 11.028294 -11.302404 -2.372632 -1.384269 -14.238583 -6.320119 -0.625439 -26.924183 -3.827598 -4.186994 -50.119205 -4.425725 -13.708526 -7.363477 -3.720938 18.141148 -14.052736 -3.242674 6e-06 -18.78727 -2e-06 -0.429712 -8.456042 2.555504 0.0 1e-06 -0.0 -15.923536 -20.094482 -5.473582 30.41921 -7.190826 1.735927 1e-06 -8.162926 1e-06 -1.861903 -22.861469 -6.167942 1e-06 -3e-06 -1e-06 164.819702 -14.053571 1.01885 54.087936 -1.934327 0.514067 -29.459269 24.995037 9.846768 -7.674257 1.066541 1.46761 -0.999999 -0.0 0.0 -68.665451 6.565991 -8.921112 119.502563 0.05609 -0.075693 -55.523167 5.332919 -13.157323 -10.458481 0.612609 1.990454 -1.000002 -0.0 1e-06 
0.0 0.0 0.0 0.0 -0.0 0.0 -23.44865 45.845406 165.594452 81.197403 -57.555225 87.843422 10.446175 3.906676 1.681449 -4.849589 1.30264 1.275886 23.336817 5.405952 2.509948 8.784753 -8.146066 3.303103 -2.855874 -0.214585 3.651649 -42.291542 4.764909 1.650776 8e-06 0.0 -1e-06 -0.189038 -0.090283 0.20957 -0.107843 -0.110697 0.31547 0.044241 -0.083916 0.114306 -40.265018 -60.102863 42.845284 99.590836 -0.083851 -31.435648 6.988428 0.294831 0.165292 -5.679751 77.230141 -4.445454 17.636637 -26.322737 52.411205 -19.466663 -14.395598 29.410395 -1e-06 -8.774824 -3e-06 14.982753 -18.00098 6.76578 -0.609776 -1.795655 -3.889328 -4.80709 -11.046811 -2.937851 5e-06 -20.976019 -0.0 -5.01997 -25.03356 -4.031882 6e-06 0.0 0.0 -10.634536 -5.686971 -3.565588 10.573277 -17.922955 -3.113902 3e-06 -13.821211 1e-06 -0.501776 -31.181505 -4.027016 -10.533645 -58.505291 5.924098 -13.982717 -7.150199 -2.875042 13.772731 -8.401493 -3.218242 0.347734 -34.211555 0.771656 -0.963029 -17.73337 2.621021 0.0 0.0 -0.0 -17.346422 -20.095221 -4.201784 21.757561 -1.638375 3.866428 1e-06 -6.338825 1e-06 -1.697589 -22.591745 -6.194007 -0.0 -6e-06 -2e-06 -165.677277 -79.239799 -5.018976 86.127449 -34.68132 -52.066139 31.794367 -2.093278 -0.091142 77.104942 45.276688 88.861504 22.182121 -20.375891 49.933323 -16.701813 -16.743528 28.47653 -1e-06 -12.690601 -1e-06 16.149117 -18.823471 2.547186 -0.105921 -1.513857 -4.275883 -5.039042 -5.612871 -2.953557 5e-06 -11.020521 -2e-06 -6.111298 -15.89533 -3.840473 -0.0 1e-06 1e-06 -10.283373 -5.680289 -4.34184 11.028296 -11.302404 -2.372633 -1.384268 -14.238583 -6.320124 -0.625436 -26.924187 -3.827602 -4.059973 -50.080704 -4.535986 -13.708527 -7.363476 -3.72094 18.141153 -14.052739 -3.242676 7e-06 -18.78727 -1e-06 -0.429711 -8.456041 2.555503 1e-06 -0.0 -1e-06 -15.923538 -20.094482 -5.473588 30.41921 -7.190829 1.735927 3e-06 -8.162925 -0.0 -1.861901 -22.861469 -6.167942 -0.0 -3e-06 -1e-06 164.202209 -14.670458 0.184092 54.107525 -2.016091 0.554838 -30.386095 23.623981 7.225006 -6.990366 1.05181 1.627366 -1.000003 -1e-06 1e-06 -67.932251 7.360102 -9.110697 117.226936 -0.213781 -0.102654 -53.10902 5.498442 -12.852774 -10.284418 0.609133 1.999306 -1.000003 -1e-06 1e-06 
